<svg width="189" height="80" viewBox="0 0 189 80" fill="none" xmlns="http://www.w3.org/2000/svg">
<g filter="url(#filter0_di_1_5)">
<path d="M20.9438 63.5291C23.1416 63.5291 24.7512 62.8857 25.7727 61.599C26.7942 60.3123 27.3049 58.7842 27.3049 57.015V53.6373C27.3049 51.5463 26.6549 50.0666 25.3548 49.198C24.0547 48.2973 22.5844 47.8469 20.9438 47.8469H17.3222V63.5291H20.9438ZM26.6549 30.9101C26.6549 28.98 26.1441 27.645 25.1226 26.9052C24.1012 26.1331 22.6308 25.7471 20.7117 25.7471H17.3222V39.6922H21.0831C22.8785 39.6922 24.2559 38.9684 25.2155 37.5208C26.1751 36.041 26.6549 34.2396 26.6549 32.1165V30.9101ZM24.1012 73.421C21.6867 73.421 18.5604 73.3566 14.7221 73.228C10.8838 73.0993 8.12889 73.0188 6.45737 72.9867H2V16.4343L9.5 0C5 18.5 14.2114 16.3699 16.7186 16.2413C19.2259 16.0804 18.5 0 20.7117 2.5C26.6549 16.9168 32.923 19.6672 32.923 10C35.4303 10.6112 35.7708 18.4448 37.1947 19.6672C38.6186 20.8896 35.5 0 43.2308 10C36 18.7918 41.1413 27.4359 41.1413 29.6556C41.1413 33.0654 40.383 35.9928 38.8662 38.4376C37.3495 40.8824 35.1518 42.4104 32.273 43.0216C39.5782 43.6972 43.2308 48.1525 43.2308 56.3877C43.2308 58.8647 42.8748 61.1165 42.1628 63.1431C41.4509 65.1375 40.352 66.9229 38.8662 68.4992C37.4114 70.0433 35.4303 71.2496 32.923 72.1181C30.4158 72.9867 27.4751 73.421 24.1012 73.421Z" fill="black"/>
<path d="M63.0775 72.9867H48.0802V41.7671L45.2944 39.9817L45.2944 32.0682L52 32.406L56 30.9101L60.3845 28L60.3845 43.4559C66 44.0832 67.5 12.5 72.5958 31.6339C73.3697 31.6339 74.1745 31.7787 75.0102 32.0682L73.4316 49.2463C72.7815 48.6351 71.3577 48.3295 69.1599 48.3295C66.0026 48.3295 63.9751 49.198 63.0775 50.9351V72.9867Z" fill="black"/>
<path d="M98.7449 68.6922L98.2805 69.223C97.971 69.609 97.4912 70.0593 96.8412 70.574C96.2221 71.0887 95.4947 71.6034 94.6589 72.1181C93.8541 72.6328 92.8636 73.0671 91.6873 73.421C90.5111 73.807 89.3039 74 88.0657 74C79.7081 74 75.5293 69.7055 75.5293 61.1165C75.5293 59.4437 75.8234 57.9157 76.4115 56.5324C76.9996 55.117 77.758 53.9268 78.6866 52.9617C79.6153 51.9967 80.7296 51.1442 82.0297 50.4043C83.3297 49.6323 84.6298 49.0371 85.9299 48.619C87.2609 48.1686 88.6538 47.7987 90.1087 47.5091C91.5635 47.2196 92.8636 47.0266 94.0089 46.9301C95.1542 46.8336 96.2531 46.7854 97.3055 46.7854V45.9168C97.3055 43.9545 96.7947 42.5713 95.7732 41.7671C94.7827 40.9628 93.1731 40.5607 90.9444 40.5607C89.0253 40.5607 87.0287 40.802 84.9548 41.2845C82.8809 41.7349 81.2558 42.2818 80.0796 42.9251L77.108 36.3627C79.2129 34.9473 84.9548 22.5 84 29.6556C82.0297 38.6306 100.231 19.6672 96.1911 19.6672C99.2865 19.6672 101.283 31.3283 103.295 31.9717C105.307 32.5829 106.932 33.6445 108.17 35.1564C109.439 36.6362 110.337 38.5341 110.863 40.8503C111.39 43.1342 111.653 46.0455 111.653 49.584V69.223L112.953 72.9867H100.231L98.7449 68.6922ZM95.0768 65.5075C95.4792 65.5075 95.8506 65.4271 96.1911 65.2662C96.5626 65.0732 96.8412 64.8963 97.0269 64.7354C97.2126 64.5424 97.3055 64.4459 97.3055 64.4459V52.8652C95.4173 52.8652 93.916 53.4121 92.8017 54.5058C91.6873 55.5674 91.1301 57.2241 91.1301 59.4759C91.1301 63.4969 92.4457 65.5075 95.0768 65.5075Z" fill="black"/>
<path d="M129.802 74C126.892 74 123.952 73.5014 120.98 72.5042C118.009 71.4748 116.105 70.4775 115.269 69.5125L116.476 61.7438C117.529 62.8053 119.278 63.7221 121.723 64.4942C124.199 65.2662 126.722 65.6522 129.291 65.6522C131.149 65.6522 132.418 65.411 133.099 64.9284C133.811 64.4459 134.167 63.7704 134.167 62.9018C134.167 62.0654 133.548 61.3256 132.309 60.6822C131.071 60.0066 129.059 59.2346 126.273 58.3661C119.061 56.1142 115.455 51.4498 115.455 44.3727C115.455 41.4775 116.26 39.0005 117.869 36.9418C119.479 34.8508 121.723 31.0067 123.5 23.9135C123.5 29.6556 136 32.6473 133.099 22C139.503 25 142 34 144.985 28C145.542 28.5469 144.985 34.8669 144.985 34.8669L142.942 41.7671C140.899 39.6761 138.082 38.6306 134.492 38.6306C131.551 38.6306 130.081 39.5313 130.081 41.3328C130.081 41.8475 130.189 42.2817 130.406 42.6356C130.622 42.9573 130.978 43.2468 131.474 43.5042C132 43.7293 132.511 43.9223 133.006 44.0832C133.501 44.2119 134.198 44.4049 135.095 44.6622C135.993 44.8874 136.767 45.0965 137.417 45.2895C141.038 46.5441 143.669 48.3134 145.31 50.5973C146.951 52.8813 147.771 55.7282 147.771 59.1381C147.771 69.046 141.781 74 129.802 74Z" fill="black"/>
<path d="M172.674 68.6922L172.21 69.223C171.9 69.609 171.421 70.0593 170.771 70.574C170.152 71.0887 169.424 71.6034 168.588 72.1181C167.784 72.6328 166.793 73.0671 165.617 73.421C164.441 73.807 163.233 74 161.995 74C153.638 74 149.459 69.7055 149.459 61.1165C149.459 59.4437 149.753 57.9157 150.341 56.5324C150.929 55.117 151.687 53.9268 152.616 52.9617C153.545 51.9967 154.659 51.1442 155.959 50.4043C157.259 49.6323 158.559 49.0371 159.859 48.619C161.19 48.1686 162.583 47.7987 164.038 47.5091C165.493 47.2196 166.793 47.0266 167.938 46.9301C169.084 46.8336 170.183 46.7854 171.235 46.7854V45.9168C171.235 43.9545 170.724 42.5713 169.703 41.7671C168.712 40.9628 167.103 40.5607 164.874 40.5607C162.955 40.5607 160.958 40.802 158.884 41.2845C156.81 41.7349 155.185 42.2818 154.009 42.9251L151.037 36.3627C153.142 34.9473 156.485 20.7288 159.859 19.6672C158.884 33 166.066 31.0067 169.563 31.0067C186.882 14.5 174.16 17 182.1 28C184 23.9135 180.862 33.6445 182.1 35.1564C183.369 36.6362 184.5 38.6306 186.882 35.1564C185.582 40.5607 185.582 46.0455 185.582 49.584V69.223L186.882 72.9867H174.16L172.674 68.6922ZM169.006 65.5075C169.409 65.5075 169.78 65.4271 170.121 65.2662C170.492 65.0732 170.771 64.8963 170.956 64.7354C171.142 64.5424 171.235 64.4459 171.235 64.4459V52.8652C169.347 52.8652 167.845 53.4121 166.731 54.5058C165.617 55.5674 165.06 57.2241 165.06 59.4759C165.06 63.4969 166.375 65.5075 169.006 65.5075Z" fill="black"/>
</g>
<defs>
<filter id="filter0_di_1_5" x="0" y="0" width="188.882" height="80" filterUnits="userSpaceOnUse" color-interpolation-filters="sRGB">
<feFlood flood-opacity="0" result="BackgroundImageFix"/>
<feColorMatrix in="SourceAlpha" type="matrix" values="0 0 0 0 0 0 0 0 0 0 0 0 0 0 0 0 0 0 127 0" result="hardAlpha"/>
<feOffset dy="4"/>
<feGaussianBlur stdDeviation="1"/>
<feComposite in2="hardAlpha" operator="out"/>
<feColorMatrix type="matrix" values="0 0 0 0 1 0 0 0 0 0 0 0 0 0 0 0 0 0 0.25 0"/>
<feBlend mode="normal" in2="BackgroundImageFix" result="effect1_dropShadow_1_5"/>
<feBlend mode="normal" in="SourceGraphic" in2="effect1_dropShadow_1_5" result="shape"/>
<feColorMatrix in="SourceAlpha" type="matrix" values="0 0 0 0 0 0 0 0 0 0 0 0 0 0 0 0 0 0 127 0" result="hardAlpha"/>
<feOffset dy="4"/>
<feGaussianBlur stdDeviation="2"/>
<feComposite in2="hardAlpha" operator="arithmetic" k2="-1" k3="1"/>
<feColorMatrix type="matrix" values="0 0 0 0 0 0 0 0 0 0 0 0 0 0 0 0 0 0 0.71 0"/>
<feBlend mode="normal" in2="shape" result="effect2_innerShadow_1_5"/>
</filter>
</defs>
</svg>
