<?xml version="1.0" encoding="UTF-8" standalone="no" ?>
<!DOCTYPE svg PUBLIC "-//W3C//DTD SVG 1.1//EN" "http://www.w3.org/Graphics/SVG/1.1/DTD/svg11.dtd">
<svg xmlns="http://www.w3.org/2000/svg" xmlns:xlink="http://www.w3.org/1999/xlink" version="1.1" width="1000" height="1000" viewBox="0 0 500 500" xml:space="preserve">
<desc>Created with Fabric.js 5.3.0</desc>
<defs>
</defs>
<g transform="matrix(1.5422076409 -1.0402321885 1.8932921704 2.8069210739 119.670534986 208.6970442292)" id="qP8C8aL7e9Mz5moTzLtq2"  >
<path style="stroke: none; stroke-width: 1; stroke-dasharray: none; stroke-linecap: butt; stroke-dashoffset: 0; stroke-linejoin: miter; stroke-miterlimit: 4; fill: rgb(49,137,49); fill-rule: nonzero; opacity: 1;"  transform=" translate(0, 0)" d="M 14.74796 -22.6525 C 24.51287 -9.24487 32.08157 4.614609999999999 37.36406 18.76118 C 39.63425 24.84079 41.90941 32.26554 40.29211 37.499030000000005 C 36.81418 48.753440000000005 0.292110000000001 37.499030000000005 0.292110000000001 37.499030000000005 C 0.292110000000001 37.499030000000005 -31.854010000000002 47.499030000000005 -39.70789 37.499030000000005 C -41.45391 35.27590000000001 -40.86247 31.465480000000007 -40.02556 28.546620000000004 L -40.02556 28.546620000000004 C -34.11425 7.930030000000006 -23.508709999999997 -12.196439999999996 -8.45844 -31.359289999999994 L 0.29210000000000136 -42.500969999999995 z" stroke-linecap="round" />
</g>
<g transform="matrix(1.5422076409 -1.0402321885 1.0402321885 1.5422076409 167.2235370743 238.7417577908)" id="Nt3qc5sNBpVucex2bfkZZ"  >
<path style="stroke: rgb(44,114,52); stroke-width: 2; stroke-dasharray: none; stroke-linecap: butt; stroke-dashoffset: 0; stroke-linejoin: miter; stroke-miterlimit: 4; fill: rgb(255,255,255); fill-opacity: 0; fill-rule: nonzero; opacity: 1;"  transform=" translate(0, 0)" d="M -12.16104 -91.70472 L -12.16104 40.71536999999999 C -12.16104 40.71536999999999 -17.19618 68.87366999999999 12.484190000000002 91.70472" stroke-linecap="round" />
</g>
<g transform="matrix(1.5422076409 -1.0402321885 1.0402321885 1.5422076409 114.2685622799 166.0245154123)" id="RWCiBdWuZGesXPk31ckg0"  >
<path style="stroke: rgb(44,114,52); stroke-width: 1; stroke-dasharray: none; stroke-linecap: butt; stroke-dashoffset: 0; stroke-linejoin: miter; stroke-miterlimit: 4; fill: rgb(255,255,255); fill-opacity: 0; fill-rule: nonzero; opacity: 1;"  transform=" translate(0, 0)" d="M -10.42003 -16.74277 L 10.42003 16.74277 z" stroke-linecap="round" />
</g>
<g transform="matrix(1.5422076409 -1.0402321885 1.0402321885 1.5422076409 112.1073133013 196.5123593431)" id="EyG9gBWyWtZuiOWD_eNgK"  >
<path style="stroke: rgb(44,114,52); stroke-width: 2; stroke-dasharray: none; stroke-linecap: round; stroke-dashoffset: 0; stroke-linejoin: round; stroke-miterlimit: 10; fill: none; fill-rule: nonzero; opacity: 1;"  transform=" translate(-225.6468797565, -257.9908675799)" d="M 225.64487975646878 257.99086757990864 L 225.6488797564688 257.99086757990864" stroke-linecap="round" />
</g>
<g transform="matrix(1.5422076409 -1.0402321885 1.0402321885 1.5422076409 137.9317520599 207.0016919897)" id="g1ZBskbtasiNgeAZ9dhgy"  >
<path style="stroke: rgb(44,114,52); stroke-width: 1; stroke-dasharray: none; stroke-linecap: butt; stroke-dashoffset: 0; stroke-linejoin: miter; stroke-miterlimit: 4; fill: rgb(255,255,255); fill-opacity: 0; fill-rule: nonzero; opacity: 1;"  transform=" translate(0, 0)" d="M -9.14796 -13.4376 L 9.14796 13.43759" stroke-linecap="round" />
</g>
<g transform="matrix(1.5422076409 -1.0402321885 1.0402321885 1.5422076409 184.9164222231 263.9491603149)" id="ueNaagwJ18koTUmjtTmcs"  >
<path style="stroke: rgb(44,114,52); stroke-width: 1; stroke-dasharray: none; stroke-linecap: butt; stroke-dashoffset: 0; stroke-linejoin: miter; stroke-miterlimit: 4; fill: rgb(255,255,255); fill-opacity: 0; fill-rule: nonzero; opacity: 1;"  transform=" translate(0, 0)" d="M -12.17656 -16.55251 L 12.17656 16.55251" stroke-linecap="round" />
</g>
<g transform="matrix(1.5422076409 -1.0402321885 1.0402321885 1.5422076409 82.7399077516 191.1038423773)" id="GYBjkhkneyaFkQBdbgKjl"  >
<path style="stroke: rgb(44,114,52); stroke-width: 1; stroke-dasharray: none; stroke-linecap: butt; stroke-dashoffset: 0; stroke-linejoin: miter; stroke-miterlimit: 4; fill: rgb(255,255,255); fill-opacity: 0; fill-rule: nonzero; opacity: 1;"  transform=" translate(0, 0)" d="M 9.84686 -18.94207 L -9.84686 18.94207" stroke-linecap="round" />
</g>
<g transform="matrix(1.5422076409 -1.0402321885 1.0402321885 1.5422076409 116.7702418048 238.0341955415)" id="-pPRdqyvUhFvKx-DJHoUA"  >
<path style="stroke: rgb(44,114,52); stroke-width: 1; stroke-dasharray: none; stroke-linecap: butt; stroke-dashoffset: 0; stroke-linejoin: miter; stroke-miterlimit: 4; fill: rgb(255,255,255); fill-opacity: 0; fill-rule: nonzero; opacity: 1;"  transform=" translate(0, 0)" d="M 11.40549 -18.90639 L -11.40549 18.9064" stroke-linecap="round" />
</g>
<g transform="matrix(1.5422076409 -1.0402321885 1.0402321885 1.5422076409 150.7389061857 287.5631492445)" id="7ZO9Xu-Q2b6mQu8YSYip_"  >
<path style="stroke: rgb(44,114,52); stroke-width: 1; stroke-dasharray: none; stroke-linecap: butt; stroke-dashoffset: 0; stroke-linejoin: miter; stroke-miterlimit: 4; fill: rgb(255,255,255); fill-opacity: 0; fill-rule: nonzero; opacity: 1;"  transform=" translate(0, 0)" d="M 11.65549 -16.80251 L -11.65549 16.80251" stroke-linecap="round" />
</g>
<g transform="matrix(1.8599552135 0.032465639 -0.0590896348 3.3852429119 243.0084720853 148.0075220689)" id="mDsGAIAu03-V2cQvJtLf_"  >
<path style="stroke: none; stroke-width: 1; stroke-dasharray: none; stroke-linecap: butt; stroke-dashoffset: 0; stroke-linejoin: miter; stroke-miterlimit: 4; fill: rgb(49,137,49); fill-rule: nonzero; opacity: 1;"  transform=" translate(0, 0)" d="M 14.74796 -22.6525 C 24.51287 -9.24487 32.08157 4.614609999999999 37.36406 18.76118 C 39.63425 24.84079 41.90941 32.26554 40.29211 37.499030000000005 C 36.81418 48.753440000000005 0.292110000000001 37.499030000000005 0.292110000000001 37.499030000000005 C 0.292110000000001 37.499030000000005 -31.854010000000002 47.499030000000005 -39.70789 37.499030000000005 C -41.45391 35.27590000000001 -40.86247 31.465480000000007 -40.02556 28.546620000000004 L -40.02556 28.546620000000004 C -34.11425 7.930030000000006 -23.508709999999997 -12.196439999999996 -8.45844 -31.359289999999994 L 0.29210000000000136 -42.500969999999995 z" stroke-linecap="round" />
</g>
<g transform="matrix(1.8599552135 0.032465639 -0.032465639 1.8599552135 264.7286712222 199.8939920787)" id="IcNYdz1YsxaWDHxokwIsv"  >
<path style="stroke: rgb(44,114,52); stroke-width: 2; stroke-dasharray: none; stroke-linecap: butt; stroke-dashoffset: 0; stroke-linejoin: miter; stroke-miterlimit: 4; fill: rgb(255,255,255); fill-opacity: 0; fill-rule: nonzero; opacity: 1;"  transform=" translate(0, 0)" d="M -12.16104 -91.70472 L -12.16104 40.71536999999999 C -12.16104 40.71536999999999 -17.19618 68.87366999999999 12.484190000000002 91.70472" stroke-linecap="round" />
</g>
<g transform="matrix(1.8599552135 0.032465639 -0.032465639 1.8599552135 263.0593921087 109.9537885995)" id="5TuosxQ8eiBZ8pG0H7pYf"  >
<path style="stroke: rgb(44,114,52); stroke-width: 1; stroke-dasharray: none; stroke-linecap: butt; stroke-dashoffset: 0; stroke-linejoin: miter; stroke-miterlimit: 4; fill: rgb(255,255,255); fill-opacity: 0; fill-rule: nonzero; opacity: 1;"  transform=" translate(0, 0)" d="M -10.42003 -16.74277 L 10.42003 16.74277 z" stroke-linecap="round" />
</g>
<g transform="matrix(1.8599552135 0.032465639 -0.032465639 1.8599552135 243.8018917159 133.6883267943)" id="YvRunhOobfWqa6nlz-Gne"  >
<path style="stroke: rgb(44,114,52); stroke-width: 2; stroke-dasharray: none; stroke-linecap: round; stroke-dashoffset: 0; stroke-linejoin: round; stroke-miterlimit: 10; fill: none; fill-rule: nonzero; opacity: 1;"  transform=" translate(-225.6468797565, -257.9908675799)" d="M 225.64487975646878 257.99086757990864 L 225.6488797564688 257.99086757990864" stroke-linecap="round" />
</g>
<g transform="matrix(1.8599552135 0.032465639 -0.032465639 1.8599552135 258.9395994785 157.0929746289)" id="Dw9raPSWUc1hPMfUa9v8m"  >
<path style="stroke: rgb(44,114,52); stroke-width: 1; stroke-dasharray: none; stroke-linecap: butt; stroke-dashoffset: 0; stroke-linejoin: miter; stroke-miterlimit: 4; fill: rgb(255,255,255); fill-opacity: 0; fill-rule: nonzero; opacity: 1;"  transform=" translate(0, 0)" d="M -9.14796 -13.4376 L 9.14796 13.43759" stroke-linecap="round" />
</g>
<g transform="matrix(1.8599552135 0.032465639 -0.032465639 1.8599552135 264.7634621516 230.6909093998)" id="MhU7bkO6faM-pSEhrRm41"  >
<path style="stroke: rgb(44,114,52); stroke-width: 1; stroke-dasharray: none; stroke-linecap: butt; stroke-dashoffset: 0; stroke-linejoin: miter; stroke-miterlimit: 4; fill: rgb(255,255,255); fill-opacity: 0; fill-rule: nonzero; opacity: 1;"  transform=" translate(0, 0)" d="M -12.17656 -16.55251 L 12.17656 16.55251" stroke-linecap="round" />
</g>
<g transform="matrix(1.8599552135 0.032465639 -0.032465639 1.8599552135 222.8477193115 112.413477245)" id="1M0kyNyIan3e_WP8ng2jS"  >
<path style="stroke: rgb(44,114,52); stroke-width: 1; stroke-dasharray: none; stroke-linecap: butt; stroke-dashoffset: 0; stroke-linejoin: miter; stroke-miterlimit: 4; fill: rgb(255,255,255); fill-opacity: 0; fill-rule: nonzero; opacity: 1;"  transform=" translate(0, 0)" d="M 9.84686 -18.94207 L -9.84686 18.94207" stroke-linecap="round" />
</g>
<g transform="matrix(1.8599552135 0.032465639 -0.032465639 1.8599552135 223.8055922944 170.3755697128)" id="9xEapNZbti8Ch1YVkR8hA"  >
<path style="stroke: rgb(44,114,52); stroke-width: 1; stroke-dasharray: none; stroke-linecap: butt; stroke-dashoffset: 0; stroke-linejoin: miter; stroke-miterlimit: 4; fill: rgb(255,255,255); fill-opacity: 0; fill-rule: nonzero; opacity: 1;"  transform=" translate(0, 0)" d="M 11.40549 -18.90639 L -11.40549 18.9064" stroke-linecap="round" />
</g>
<g transform="matrix(1.8599552135 0.032465639 -0.032465639 1.8599552135 223.2224524026 230.4309388534)" id="ChcvRhie8HoblNhWUEiWB"  >
<path style="stroke: rgb(44,114,52); stroke-width: 1; stroke-dasharray: none; stroke-linecap: butt; stroke-dashoffset: 0; stroke-linejoin: miter; stroke-miterlimit: 4; fill: rgb(255,255,255); fill-opacity: 0; fill-rule: nonzero; opacity: 1;"  transform=" translate(0, 0)" d="M 11.65549 -16.80251 L -11.65549 16.80251" stroke-linecap="round" />
</g>
<g transform="matrix(1.7123586017 0.7268531027 -1.3229212705 3.1166072049 337.0159209919 157.841823671)" id="JtzJRBGNXUTA7wMgB_HRF"  >
<path style="stroke: none; stroke-width: 1; stroke-dasharray: none; stroke-linecap: butt; stroke-dashoffset: 0; stroke-linejoin: miter; stroke-miterlimit: 4; fill: rgb(49,137,49); fill-rule: nonzero; opacity: 1;"  transform=" translate(0, 0)" d="M 14.74796 -22.6525 C 24.51287 -9.24487 32.08157 4.614609999999999 37.36406 18.76118 C 39.63425 24.84079 41.90941 32.26554 40.29211 37.499030000000005 C 36.81418 48.753440000000005 0.292110000000001 37.499030000000005 0.292110000000001 37.499030000000005 C 0.292110000000001 37.499030000000005 -31.854010000000002 47.499030000000005 -39.70789 37.499030000000005 C -41.45391 35.27590000000001 -40.86247 31.465480000000007 -40.02556 28.546620000000004 L -40.02556 28.546620000000004 C -34.11425 7.930030000000006 -23.508709999999997 -12.196439999999996 -8.45844 -31.359289999999994 L 0.29210000000000136 -42.500969999999995 z" stroke-linecap="round" />
</g>
<g transform="matrix(1.7123586017 0.7268531027 -0.7268531027 1.7123586017 337.717525175 214.0866507413)" id="d-5rJ7gLO1pIwoPC4ZrEr"  >
<path style="stroke: rgb(44,114,52); stroke-width: 2; stroke-dasharray: none; stroke-linecap: butt; stroke-dashoffset: 0; stroke-linejoin: miter; stroke-miterlimit: 4; fill: rgb(255,255,255); fill-opacity: 0; fill-rule: nonzero; opacity: 1;"  transform=" translate(0, 0)" d="M -12.16104 -91.70472 L -12.16104 40.71536999999999 C -12.16104 40.71536999999999 -17.19618 68.87366999999999 12.484190000000002 91.70472" stroke-linecap="round" />
</g>
<g transform="matrix(1.7123586017 0.7268531027 -0.7268531027 1.7123586017 369.8619897686 130.0702232369)" id="QiyCGBa5zec4T7gdg4iye"  >
<path style="stroke: rgb(44,114,52); stroke-width: 1; stroke-dasharray: none; stroke-linecap: butt; stroke-dashoffset: 0; stroke-linejoin: miter; stroke-miterlimit: 4; fill: rgb(255,255,255); fill-opacity: 0; fill-rule: nonzero; opacity: 1;"  transform=" translate(0, 0)" d="M -10.42003 -16.74277 L 10.42003 16.74277 z" stroke-linecap="round" />
</g>
<g transform="matrix(1.7123586017 0.7268531027 -0.7268531027 1.7123586017 343.1156318256 144.8625172268)" id="mkM6a7KMTJ412iVsI2fxf"  >
<path style="stroke: rgb(44,114,52); stroke-width: 2; stroke-dasharray: none; stroke-linecap: round; stroke-dashoffset: 0; stroke-linejoin: round; stroke-miterlimit: 10; fill: none; fill-rule: nonzero; opacity: 1;"  transform=" translate(-225.6468797565, -257.9908675799)" d="M 225.64487975646878 257.99086757990864 L 225.6488797564688 257.99086757990864" stroke-linecap="round" />
</g>
<g transform="matrix(1.7123586017 0.7268531027 -0.7268531027 1.7123586017 348.3835346628 172.2336139579)" id="FKh4OU-0RktCb89fKhpp9"  >
<path style="stroke: rgb(44,114,52); stroke-width: 1; stroke-dasharray: none; stroke-linecap: butt; stroke-dashoffset: 0; stroke-linejoin: miter; stroke-miterlimit: 4; fill: rgb(255,255,255); fill-opacity: 0; fill-rule: nonzero; opacity: 1;"  transform=" translate(0, 0)" d="M -9.14796 -13.4376 L 9.14796 13.43759" stroke-linecap="round" />
</g>
<g transform="matrix(1.7123586017 0.7268531027 -0.7268531027 1.7123586017 326.2130544775 242.6540881635)" id="Ks6RDcCyfgRsWlOjNtWwi"  >
<path style="stroke: rgb(44,114,52); stroke-width: 1; stroke-dasharray: none; stroke-linecap: butt; stroke-dashoffset: 0; stroke-linejoin: miter; stroke-miterlimit: 4; fill: rgb(255,255,255); fill-opacity: 0; fill-rule: nonzero; opacity: 1;"  transform=" translate(0, 0)" d="M -12.17656 -16.55251 L 12.17656 16.55251" stroke-linecap="round" />
</g>
<g transform="matrix(1.7123586017 0.7268531027 -0.7268531027 1.7123586017 331.6569604016 117.2872490742)" id="h9HX2kJ9hcbOPBpUhAvhb"  >
<path style="stroke: rgb(44,114,52); stroke-width: 1; stroke-dasharray: none; stroke-linecap: butt; stroke-dashoffset: 0; stroke-linejoin: miter; stroke-miterlimit: 4; fill: rgb(255,255,255); fill-opacity: 0; fill-rule: nonzero; opacity: 1;"  transform=" translate(0, 0)" d="M 9.84686 -18.94207 L -9.84686 18.94207" stroke-linecap="round" />
</g>
<g transform="matrix(1.7123586017 0.7268531027 -0.7268531027 1.7123586017 310.8321027594 171.3875909223)" id="pNFYjXHKMiBNYWFgOioer"  >
<path style="stroke: rgb(44,114,52); stroke-width: 1; stroke-dasharray: none; stroke-linecap: butt; stroke-dashoffset: 0; stroke-linejoin: miter; stroke-miterlimit: 4; fill: rgb(255,255,255); fill-opacity: 0; fill-rule: nonzero; opacity: 1;"  transform=" translate(0, 0)" d="M 11.40549 -18.90639 L -11.40549 18.9064" stroke-linecap="round" />
</g>
<g transform="matrix(1.7123586017 0.7268531027 -0.7268531027 1.7123586017 287.7942876166 226.8515115211)" id="yuGYajhMcvTeCeZIGYMoj"  >
<path style="stroke: rgb(44,114,52); stroke-width: 1; stroke-dasharray: none; stroke-linecap: butt; stroke-dashoffset: 0; stroke-linejoin: miter; stroke-miterlimit: 4; fill: rgb(255,255,255); fill-opacity: 0; fill-rule: nonzero; opacity: 1;"  transform=" translate(0, 0)" d="M 11.65549 -16.80251 L -11.65549 16.80251" stroke-linecap="round" />
</g>
<g transform="matrix(1.7588900916 -0.6056344273 1.1022951721 3.2012976293 203.4888614847 272.3543341072)" id="IgsVgnHI2AeR18oN5fpuB"  >
<path style="stroke: none; stroke-width: 1; stroke-dasharray: none; stroke-linecap: butt; stroke-dashoffset: 0; stroke-linejoin: miter; stroke-miterlimit: 4; fill: rgb(49,137,49); fill-rule: nonzero; opacity: 1;"  transform=" translate(0, 0)" d="M 14.74796 -22.6525 C 24.51287 -9.24487 32.08157 4.614609999999999 37.36406 18.76118 C 39.63425 24.84079 41.90941 32.26554 40.29211 37.499030000000005 C 36.81418 48.753440000000005 0.292110000000001 37.499030000000005 0.292110000000001 37.499030000000005 C 0.292110000000001 37.499030000000005 -31.854010000000002 47.499030000000005 -39.70789 37.499030000000005 C -41.45391 35.27590000000001 -40.86247 31.465480000000007 -40.02556 28.546620000000004 L -40.02556 28.546620000000004 C -34.11425 7.930030000000006 -23.508709999999997 -12.196439999999996 -8.45844 -31.359289999999994 L 0.29210000000000136 -42.500969999999995 z" stroke-linecap="round" />
</g>
<g transform="matrix(1.7588900916 -0.6056344273 0.6056344273 1.7588900916 241.6453902452 313.682921472)" id="b-uNZ1ByZZjo03E32q4Ez"  >
<path style="stroke: rgb(44,114,52); stroke-width: 2; stroke-dasharray: none; stroke-linecap: butt; stroke-dashoffset: 0; stroke-linejoin: miter; stroke-miterlimit: 4; fill: rgb(255,255,255); fill-opacity: 0; fill-rule: nonzero; opacity: 1;"  transform=" translate(0, 0)" d="M -12.16104 -91.70472 L -12.16104 40.71536999999999 C -12.16104 40.71536999999999 -17.19618 68.87366999999999 12.484190000000002 91.70472" stroke-linecap="round" />
</g>
<g transform="matrix(1.7588900916 -0.6056344273 0.6056344273 1.7588900916 209.3154196955 229.7377030323)" id="boMijnurVUtzzUZL7bpYo"  >
<path style="stroke: rgb(44,114,52); stroke-width: 1; stroke-dasharray: none; stroke-linecap: butt; stroke-dashoffset: 0; stroke-linejoin: miter; stroke-miterlimit: 4; fill: rgb(255,255,255); fill-opacity: 0; fill-rule: nonzero; opacity: 1;"  transform=" translate(0, 0)" d="M -10.42003 -16.74277 L 10.42003 16.74277 z" stroke-linecap="round" />
</g>
<g transform="matrix(1.7588900916 -0.6056344273 0.6056344273 1.7588900916 199.3369788367 258.6273264762)" id="JadnGjx17T4blVWUntucm"  >
<path style="stroke: rgb(44,114,52); stroke-width: 2; stroke-dasharray: none; stroke-linecap: round; stroke-dashoffset: 0; stroke-linejoin: round; stroke-miterlimit: 10; fill: none; fill-rule: nonzero; opacity: 1;"  transform=" translate(-225.6468797565, -257.9908675799)" d="M 225.64487975646878 257.99086757990864 L 225.6488797564688 257.99086757990864" stroke-linecap="round" />
</g>
<g transform="matrix(1.7588900916 -0.6056344273 0.6056344273 1.7588900916 221.5666321236 275.4431003598)" id="n_fzlqL_4S4HkYXQ0y2q6"  >
<path style="stroke: rgb(44,114,52); stroke-width: 1; stroke-dasharray: none; stroke-linecap: butt; stroke-dashoffset: 0; stroke-linejoin: miter; stroke-miterlimit: 4; fill: rgb(255,255,255); fill-opacity: 0; fill-rule: nonzero; opacity: 1;"  transform=" translate(0, 0)" d="M -9.14796 -13.4376 L 9.14796 13.43759" stroke-linecap="round" />
</g>
<g transform="matrix(1.7588900916 -0.6056344273 0.6056344273 1.7588900916 252.2112491008 342.6106582231)" id="H06A12-Lf-sJemj4vuM_A"  >
<path style="stroke: rgb(44,114,52); stroke-width: 1; stroke-dasharray: none; stroke-linecap: butt; stroke-dashoffset: 0; stroke-linejoin: miter; stroke-miterlimit: 4; fill: rgb(255,255,255); fill-opacity: 0; fill-rule: nonzero; opacity: 1;"  transform=" translate(0, 0)" d="M -12.17656 -16.55251 L 12.17656 16.55251" stroke-linecap="round" />
</g>
<g transform="matrix(1.7588900916 -0.6056344273 0.6056344273 1.7588900916 172.3700705616 245.8022563955)" id="qK_7uGK5KpaXceH_b3ak8"  >
<path style="stroke: rgb(44,114,52); stroke-width: 1; stroke-dasharray: none; stroke-linecap: butt; stroke-dashoffset: 0; stroke-linejoin: miter; stroke-miterlimit: 4; fill: rgb(255,255,255); fill-opacity: 0; fill-rule: nonzero; opacity: 1;"  transform=" translate(0, 0)" d="M 9.84686 -18.94207 L -9.84686 18.94207" stroke-linecap="round" />
</g>
<g transform="matrix(1.7588900916 -0.6056344273 0.6056344273 1.7588900916 193.0943799086 299.9411951179)" id="B8oriOmqgM1eL3Yv61qgP"  >
<path style="stroke: rgb(44,114,52); stroke-width: 1; stroke-dasharray: none; stroke-linecap: butt; stroke-dashoffset: 0; stroke-linejoin: miter; stroke-miterlimit: 4; fill: rgb(255,255,255); fill-opacity: 0; fill-rule: nonzero; opacity: 1;"  transform=" translate(0, 0)" d="M 11.40549 -18.90639 L -11.40549 18.9064" stroke-linecap="round" />
</g>
<g transform="matrix(1.7588900916 -0.6056344273 0.6056344273 1.7588900916 213.0865536162 356.5742279272)" id="NY4ZROy2IQ4ySUUmbsYHm"  >
<path style="stroke: rgb(44,114,52); stroke-width: 1; stroke-dasharray: none; stroke-linecap: butt; stroke-dashoffset: 0; stroke-linejoin: miter; stroke-miterlimit: 4; fill: rgb(255,255,255); fill-opacity: 0; fill-rule: nonzero; opacity: 1;"  transform=" translate(0, 0)" d="M 11.65549 -16.80251 L -11.65549 16.80251" stroke-linecap="round" />
</g>
<g transform="matrix(1.7123586017 0.7268531027 -1.3229212705 3.1166072049 357.3536973991 267.739338917)" id="S6Nkg14IJKb8EYEqW1dOb"  >
<path style="stroke: none; stroke-width: 1; stroke-dasharray: none; stroke-linecap: butt; stroke-dashoffset: 0; stroke-linejoin: miter; stroke-miterlimit: 4; fill: rgb(49,137,49); fill-rule: nonzero; opacity: 1;"  transform=" translate(0, 0)" d="M 14.74796 -22.6525 C 24.51287 -9.24487 32.08157 4.614609999999999 37.36406 18.76118 C 39.63425 24.84079 41.90941 32.26554 40.29211 37.499030000000005 C 36.81418 48.753440000000005 0.292110000000001 37.499030000000005 0.292110000000001 37.499030000000005 C 0.292110000000001 37.499030000000005 -31.854010000000002 47.499030000000005 -39.70789 37.499030000000005 C -41.45391 35.27590000000001 -40.86247 31.465480000000007 -40.02556 28.546620000000004 L -40.02556 28.546620000000004 C -34.11425 7.930030000000006 -23.508709999999997 -12.196439999999996 -8.45844 -31.359289999999994 L 0.29210000000000136 -42.500969999999995 z" stroke-linecap="round" />
</g>
<g transform="matrix(1.7123586017 0.7268531027 -0.7268531027 1.7123586017 358.0553015822 323.9841659875)" id="oj3qpnhmNDZJRfM9pgQT-"  >
<path style="stroke: rgb(44,114,52); stroke-width: 2; stroke-dasharray: none; stroke-linecap: butt; stroke-dashoffset: 0; stroke-linejoin: miter; stroke-miterlimit: 4; fill: rgb(255,255,255); fill-opacity: 0; fill-rule: nonzero; opacity: 1;"  transform=" translate(0, 0)" d="M -12.16104 -91.70472 L -12.16104 40.71536999999999 C -12.16104 40.71536999999999 -17.19618 68.87366999999999 12.484190000000002 91.70472" stroke-linecap="round" />
</g>
<g transform="matrix(1.7123586017 0.7268531027 -0.7268531027 1.7123586017 390.1997661757 239.967738483)" id="9ocoqISjt5FJsjbmte1rP"  >
<path style="stroke: rgb(44,114,52); stroke-width: 1; stroke-dasharray: none; stroke-linecap: butt; stroke-dashoffset: 0; stroke-linejoin: miter; stroke-miterlimit: 4; fill: rgb(255,255,255); fill-opacity: 0; fill-rule: nonzero; opacity: 1;"  transform=" translate(0, 0)" d="M -10.42003 -16.74277 L 10.42003 16.74277 z" stroke-linecap="round" />
</g>
<g transform="matrix(1.7123586017 0.7268531027 -0.7268531027 1.7123586017 363.4534082328 254.7600324729)" id="Tj2xdLbp17sRBIYBTSDfd"  >
<path style="stroke: rgb(44,114,52); stroke-width: 2; stroke-dasharray: none; stroke-linecap: round; stroke-dashoffset: 0; stroke-linejoin: round; stroke-miterlimit: 10; fill: none; fill-rule: nonzero; opacity: 1;"  transform=" translate(-225.6468797565, -257.9908675799)" d="M 225.64487975646878 257.99086757990864 L 225.6488797564688 257.99086757990864" stroke-linecap="round" />
</g>
<g transform="matrix(1.7123586017 0.7268531027 -0.7268531027 1.7123586017 368.72131107 282.1311292039)" id="4hJb96lOPiEwVUgX_QGSi"  >
<path style="stroke: rgb(44,114,52); stroke-width: 1; stroke-dasharray: none; stroke-linecap: butt; stroke-dashoffset: 0; stroke-linejoin: miter; stroke-miterlimit: 4; fill: rgb(255,255,255); fill-opacity: 0; fill-rule: nonzero; opacity: 1;"  transform=" translate(0, 0)" d="M -9.14796 -13.4376 L 9.14796 13.43759" stroke-linecap="round" />
</g>
<g transform="matrix(1.7123586017 0.7268531027 -0.7268531027 1.7123586017 346.5508308846 352.5516034096)" id="2vnKxys2jvcV4FgFtqx5x"  >
<path style="stroke: rgb(44,114,52); stroke-width: 1; stroke-dasharray: none; stroke-linecap: butt; stroke-dashoffset: 0; stroke-linejoin: miter; stroke-miterlimit: 4; fill: rgb(255,255,255); fill-opacity: 0; fill-rule: nonzero; opacity: 1;"  transform=" translate(0, 0)" d="M -12.17656 -16.55251 L 12.17656 16.55251" stroke-linecap="round" />
</g>
<g transform="matrix(1.7123586017 0.7268531027 -0.7268531027 1.7123586017 351.9947368088 227.1847643204)" id="YEOXHLESLMrT7BX-YW_oL"  >
<path style="stroke: rgb(44,114,52); stroke-width: 1; stroke-dasharray: none; stroke-linecap: butt; stroke-dashoffset: 0; stroke-linejoin: miter; stroke-miterlimit: 4; fill: rgb(255,255,255); fill-opacity: 0; fill-rule: nonzero; opacity: 1;"  transform=" translate(0, 0)" d="M 9.84686 -18.94207 L -9.84686 18.94207" stroke-linecap="round" />
</g>
<g transform="matrix(1.7123586017 0.7268531027 -0.7268531027 1.7123586017 331.1698791667 281.2851061685)" id="ij7DhlXnxtEvhhA2CnvaS"  >
<path style="stroke: rgb(44,114,52); stroke-width: 1; stroke-dasharray: none; stroke-linecap: butt; stroke-dashoffset: 0; stroke-linejoin: miter; stroke-miterlimit: 4; fill: rgb(255,255,255); fill-opacity: 0; fill-rule: nonzero; opacity: 1;"  transform=" translate(0, 0)" d="M 11.40549 -18.90639 L -11.40549 18.9064" stroke-linecap="round" />
</g>
<g transform="matrix(1.7123586017 0.7268531027 -0.7268531027 1.7123586017 308.1320640237 336.7490267672)" id="HEyOf5eu-iqijekqpjqIX"  >
<path style="stroke: rgb(44,114,52); stroke-width: 1; stroke-dasharray: none; stroke-linecap: butt; stroke-dashoffset: 0; stroke-linejoin: miter; stroke-miterlimit: 4; fill: rgb(255,255,255); fill-opacity: 0; fill-rule: nonzero; opacity: 1;"  transform=" translate(0, 0)" d="M 11.65549 -16.80251 L -11.65549 16.80251" stroke-linecap="round" />
</g>
</svg>